<svg width="156" height="40" viewBox="0 0 156 40" fill="none" xmlns="http://www.w3.org/2000/svg">
<path d="M48.4924 12.9418H51.5227V14.3281C52.0409 13.7586 52.6154 13.3346 53.2481 13.054C53.8828 12.7734 54.5738 12.6321 55.321 12.6321C56.0765 12.6321 56.7591 12.8171 57.3647 13.187C57.9725 13.557 58.4595 14.0953 58.832 14.8061C59.3128 14.0974 59.9039 13.557 60.6031 13.187C61.3045 12.8171 62.0683 12.6321 62.8967 12.6321C63.7562 12.6321 64.5117 12.8316 65.1631 13.2307C65.8146 13.6297 66.2828 14.1514 66.5701 14.7936C66.8552 15.4359 66.9967 16.4834 66.9967 17.9321V25.005H63.9435V18.884C63.9435 17.5164 63.7729 16.5915 63.4336 16.1072C63.0923 15.6229 62.5824 15.3818 61.9018 15.3818C61.3836 15.3818 60.9195 15.5294 60.5095 15.8245C60.0995 16.1197 59.7935 16.5291 59.5937 17.0487C59.394 17.5704 59.2941 18.406 59.2941 19.5595V25.0029H56.2409V19.1604C56.2409 18.0817 56.1618 17.3002 55.9995 16.816C55.8413 16.3317 55.6019 15.9721 55.2835 15.7352C54.963 15.4982 54.578 15.3798 54.1243 15.3798C53.6185 15.3798 53.1627 15.5294 52.7486 15.8287C52.3386 16.128 52.0285 16.5478 51.8245 17.0862C51.6205 17.6265 51.5186 18.4766 51.5186 19.6364V25.0029H48.4883V12.9418H48.4924Z" fill="white"/>
<path d="M77.6649 12.9429H80.6952V25.0061H77.6649V23.732C77.0739 24.2932 76.4807 24.6985 75.8855 24.9458C75.2923 25.1931 74.6451 25.3178 73.952 25.3178C72.3932 25.3178 71.0424 24.713 69.904 23.5055C68.7656 22.2979 68.1953 20.7952 68.1953 18.9994C68.1953 17.1372 68.7468 15.6095 69.8478 14.4206C70.9509 13.2297 72.2891 12.6353 73.8625 12.6353C74.5868 12.6353 75.2673 12.7725 75.9021 13.0447C76.539 13.3191 77.1259 13.7285 77.6649 14.2752V12.9429ZM74.4786 15.4266C73.542 15.4266 72.7636 15.7571 72.1455 16.418C71.5253 17.079 71.2152 17.927 71.2152 18.962C71.2152 20.0033 71.5315 20.8617 72.1601 21.5351C72.7907 22.2085 73.5691 22.5432 74.489 22.5432C75.4422 22.5432 76.231 22.2127 76.8574 21.5517C77.4839 20.8908 77.7981 20.0241 77.7981 18.9516C77.7981 17.902 77.4859 17.0519 76.8574 16.4014C76.2289 15.7508 75.438 15.4266 74.4786 15.4266Z" fill="white"/>
<path d="M82.6211 12.9418H85.6514V14.1784C86.3382 13.6006 86.9605 13.1974 87.5182 12.9709C88.076 12.7443 88.6463 12.6321 89.2311 12.6321C90.4278 12.6321 91.4435 13.0498 92.2801 13.8854C92.9815 14.5941 93.3332 15.6437 93.3332 17.0342V25.005H90.3362V19.7237C90.3362 18.2833 90.2717 17.3273 90.1427 16.8554C90.0136 16.3836 89.7868 16.022 89.4663 15.7767C89.1437 15.5294 88.7483 15.4047 88.2737 15.4047C87.6619 15.4047 87.1353 15.6105 86.6962 16.0199C86.257 16.4294 85.9532 16.9968 85.7846 17.7201C85.6951 18.0963 85.6514 18.9131 85.6514 20.1685V25.0071H82.6211V12.9418Z" fill="white"/>
<path d="M93.7891 12.9429H96.8859L100.024 20.5125L103.486 12.9429H106.593L99.0275 29.4186H95.8994L98.3824 24.1061L93.7891 12.9429Z" fill="white"/>
<path d="M118.538 15.4483L117.306 16.2132C116.24 14.802 114.787 14.0953 112.946 14.0953C111.474 14.0953 110.252 14.5692 109.283 15.5128C108.309 16.4585 107.824 17.6058 107.824 18.9567C107.824 19.8359 108.048 20.6631 108.494 21.4384C108.941 22.2136 109.555 22.8143 110.336 23.2445C111.116 23.6727 111.99 23.8868 112.958 23.8868C114.733 23.8868 116.182 23.1801 117.306 21.7689L118.538 22.5774C117.961 23.4461 117.185 24.1196 116.211 24.5976C115.237 25.0756 114.13 25.3147 112.885 25.3147C110.975 25.3147 109.391 24.7078 108.134 23.496C106.875 22.2843 106.246 20.8086 106.246 19.0731C106.246 17.9051 106.54 16.8201 107.129 15.8183C107.718 14.8165 108.525 14.035 109.555 13.4738C110.585 12.9127 111.734 12.6321 113.008 12.6321C113.807 12.6321 114.579 12.7547 115.322 12.9979C116.065 13.2411 116.698 13.5591 117.216 13.9519C117.735 14.3447 118.176 14.8414 118.538 15.4483Z" fill="white"/>
<path d="M131.852 12.9418V25.005H130.321V22.9307C129.669 23.7226 128.939 24.317 128.127 24.7161C127.317 25.1151 126.431 25.3147 125.467 25.3147C123.758 25.3147 122.297 24.6953 121.088 23.4586C119.879 22.2199 119.273 20.7151 119.273 18.9401C119.273 17.2025 119.883 15.7165 121.105 14.484C122.327 13.2515 123.796 12.6321 125.513 12.6321C126.506 12.6321 127.403 12.842 128.206 13.2639C129.009 13.6858 129.715 14.3177 130.321 15.1594V12.9418H131.852ZM125.64 14.1286C124.776 14.1286 123.977 14.3406 123.247 14.7645C122.514 15.1885 121.931 15.7851 121.5 16.5541C121.067 17.321 120.851 18.1337 120.851 18.99C120.851 19.8401 121.07 20.6507 121.507 21.4259C121.942 22.2012 122.528 22.8039 123.265 23.2362C124 23.6685 124.791 23.8847 125.632 23.8847C126.483 23.8847 127.288 23.6706 128.05 23.2425C128.81 22.8143 129.397 22.2344 129.809 21.5028C130.217 20.7712 130.423 19.9481 130.423 19.0336C130.423 17.639 129.965 16.4709 129.043 15.5336C128.121 14.5983 126.986 14.1286 125.64 14.1286Z" fill="white"/>
<path d="M133.633 12.9433H135.187V15.028C135.729 14.259 136.282 13.6978 136.855 13.3424C137.639 12.8685 138.465 12.6337 139.331 12.6337C139.918 12.6337 140.474 12.748 140.998 12.9766C141.525 13.2052 141.956 13.5108 142.289 13.8911C142.622 14.2715 142.913 14.816 143.157 15.5268C143.673 14.5811 144.318 13.862 145.094 13.3694C145.87 12.8789 146.703 12.6316 147.598 12.6316C148.432 12.6316 149.169 12.8415 149.808 13.2634C150.447 13.6853 150.922 14.2715 151.232 15.0259C151.542 15.7804 151.698 16.9111 151.698 18.4179V25.0045H150.11V18.4179C150.11 17.1251 150.018 16.2356 149.833 15.7513C149.65 15.267 149.334 14.8763 148.888 14.5811C148.443 14.286 147.91 14.1384 147.29 14.1384C146.536 14.1384 145.848 14.3608 145.225 14.8035C144.603 15.2462 144.147 15.8386 143.86 16.5764C143.571 17.3164 143.429 18.5509 143.429 20.2802V25.0024H141.875V18.8274C141.875 17.3704 141.783 16.3831 141.602 15.8615C141.421 15.3398 141.104 14.922 140.653 14.6082C140.201 14.2943 139.664 14.1364 139.044 14.1364C138.326 14.1364 137.654 14.3525 137.029 14.7848C136.405 15.2171 135.941 15.7991 135.641 16.5307C135.341 17.2623 135.192 18.3826 135.192 19.8895V25.0003H133.637V12.9433H133.633Z" fill="white"/>
<path d="M21.2924 5.36854L23.4531 9.31591H28.1294C28.2657 9.31591 28.4094 9.31132 28.5543 9.32578C30.3426 9.39485 32.0321 9.88663 33.4844 10.7253L17.4688 1.48999C19.0199 2.39774 20.334 3.71092 21.2924 5.36854Z" fill="#E0A100"/>
<path d="M5.26873 20.1579L2.72559 16.0829C2.71571 16.073 2.71571 16.0631 2.70583 16.0533C2.68607 16.0138 2.6663 15.9842 2.64654 15.9447C2.60702 15.8757 2.57738 15.8165 2.53786 15.7474C2.52798 15.7277 2.5181 15.7079 2.50822 15.6882C1.67829 14.1095 1.29297 12.4124 1.29297 10.7351V29.1564C1.31273 27.3804 1.93873 25.8056 2.89711 24.1579L5.26873 20.1579Z" fill="#27C300"/>
<path d="M23.5816 30.7252L21.3585 34.5732C21.2993 34.6719 21.24 34.7805 21.1807 34.8791C21.1807 34.8791 21.1807 34.889 21.1708 34.889C21.1313 34.9581 21.0819 35.027 21.0325 35.0961C21.0127 35.1257 21.0028 35.1454 20.9831 35.1652C20.9436 35.2244 20.9139 35.2738 20.8744 35.3231C20.8151 35.4119 20.7558 35.4909 20.6966 35.5797C20.6966 35.5797 20.6966 35.5797 20.6966 35.5895C19.7876 36.8327 18.6613 37.8293 17.3867 38.5693L33.3925 29.3438C31.8315 30.2219 30.0333 30.7252 28.1264 30.7252H23.5816Z" fill="#0088DC"/>
<path d="M38.8581 19.9902C38.8581 19.9606 38.8581 19.9212 38.8581 19.8916C38.8581 19.8422 38.8581 19.783 38.8581 19.7337C38.8581 19.6449 38.8482 19.5561 38.8482 19.4673C38.8482 19.4179 38.8383 19.3587 38.8383 19.3094C38.8383 19.2699 38.8383 19.2403 38.8284 19.2009C38.8186 19.1219 38.8186 19.043 38.8087 18.9641C38.8087 18.9542 38.8087 18.9443 38.8087 18.9443C38.7988 18.8161 38.779 18.6878 38.7593 18.5595C38.7494 18.5201 38.7494 18.4806 38.7395 18.4411C38.7198 18.3326 38.7 18.2142 38.6802 18.1057C38.6704 18.0465 38.6605 17.9873 38.6506 17.9281C38.6407 17.8689 38.6308 17.8097 38.6111 17.7603C38.2455 16.0534 37.465 14.4944 36.3979 13.192C36.3584 13.1427 36.3189 13.0933 36.2794 13.0539C36.2398 13.0144 36.2102 12.9651 36.1707 12.9256C36.0916 12.8368 36.0126 12.748 35.9237 12.6592C35.8446 12.5803 35.7656 12.4915 35.6866 12.4125C35.6767 12.4027 35.6668 12.3928 35.6569 12.3829C35.5878 12.3237 35.5285 12.2547 35.4593 12.1955C35.4396 12.1757 35.4198 12.156 35.4 12.1363C35.3309 12.0672 35.2617 12.008 35.1926 11.9488C35.1827 11.9389 35.1728 11.9389 35.1728 11.929C35.0938 11.86 35.0048 11.781 34.9159 11.712C34.906 11.7021 34.906 11.7021 34.8962 11.6922C34.8072 11.6232 34.7282 11.5541 34.6393 11.4949C34.6393 11.4949 34.6393 11.4949 34.6294 11.4949C34.2638 11.2186 33.8884 10.9621 33.4932 10.7352C32.0309 9.88658 30.3513 9.38337 28.563 9.31431C28.4642 9.31431 28.3555 9.30444 28.2567 9.30444C28.2369 9.30444 28.2172 9.30444 28.1974 9.30444C28.1777 9.30444 28.1579 9.30444 28.1381 9.30444H23.6032H17.5664C19.3349 9.32418 21.1331 9.78791 22.7732 10.745C24.1268 11.5255 26.441 13.7713 27.16 15.5699C27.879 17.3685 28.1283 18.4847 28.1283 20.0297C28.1283 21.5754 27.5446 23.6631 27.1496 24.4895C26.7546 25.3159 24.3111 29.3922 23.3466 31.0001L28.148 30.7549C30.0648 30.7549 31.863 30.2517 33.4141 29.3735L33.5129 29.3143C33.5228 29.3045 33.5327 29.3045 33.5426 29.2946C33.6908 29.2058 33.839 29.117 33.9872 29.0282C33.9872 29.0282 33.9872 29.0282 33.9971 29.0282C34.0662 28.9887 34.1255 28.9394 34.1947 28.8999C34.2243 28.8802 34.2638 28.8506 34.2935 28.8309C34.3231 28.8111 34.3527 28.7815 34.3923 28.7618C34.4515 28.7223 34.5108 28.6829 34.5602 28.6335C34.5701 28.6335 34.5701 28.6237 34.58 28.6237C35.6273 27.8442 36.5066 26.8871 37.1883 25.8314C37.2081 25.8018 37.2279 25.7623 37.2476 25.7327C37.2674 25.7031 37.2871 25.6735 37.3069 25.634C38.2653 24.0652 38.8383 22.2398 38.8778 20.2764C38.8778 20.2665 38.8778 20.2665 38.8778 20.2566C38.8778 20.1876 38.8778 20.1185 38.8778 20.0396C38.8581 20.0001 38.8581 20.0001 38.8581 19.9902Z" fill="#18A7FF"/>
<path d="M17.5676 9.30526L23.6044 9.30421L21.3319 5.36753C20.3736 3.70991 19.0299 2.39763 17.4886 1.48988L17.4095 1.44055C17.3996 1.43068 17.3898 1.43068 17.3799 1.42081C17.2317 1.34188 17.0835 1.25308 16.9353 1.18402C16.9056 1.17415 16.8859 1.15441 16.8562 1.14455C16.8068 1.12481 16.7673 1.09521 16.7179 1.07548C16.6586 1.04588 16.5994 1.01628 16.5401 0.986679C16.5302 0.976813 16.5203 0.976811 16.5006 0.966945C15.1371 0.345337 13.6946 0.0296004 12.2719 0C12.262 0 12.262 0 12.2521 0C12.1829 0 12.1039 0 12.0347 0C11.9755 0 11.9063 0 11.847 0C11.8273 0 11.8174 0 11.7976 0C10.3749 0.0296004 8.93238 0.345337 7.5788 0.966945C7.55904 0.976811 7.53928 0.986677 7.51952 0.996544C7.47012 1.01628 7.41084 1.04588 7.36143 1.07548C7.30215 1.10508 7.25276 1.12481 7.19348 1.15441C7.17372 1.16428 7.15395 1.17415 7.13419 1.18402C6.98599 1.26295 6.83779 1.34188 6.68959 1.42081C6.65007 1.44055 6.61054 1.47015 6.57102 1.48988C6.46234 1.54908 6.36355 1.61815 6.25487 1.67735C6.19558 1.71682 6.1363 1.75629 6.0869 1.78589C6.00786 1.84509 5.91894 1.89442 5.8399 1.95362C5.7905 1.99309 5.74109 2.02269 5.68181 2.06216C5.55337 2.16082 5.42493 2.24963 5.30637 2.3483L5.29649 2.35816C5.23721 2.40749 5.17793 2.45683 5.11865 2.50616C5.08901 2.53576 5.05937 2.55549 5.02973 2.5851C5.00009 2.6147 4.96057 2.6443 4.93093 2.6739C4.88153 2.72323 4.82225 2.7627 4.77285 2.81204C4.76297 2.8219 4.75308 2.83177 4.7432 2.84164C4.6444 2.93044 4.55548 3.01924 4.46656 3.10804C4.45668 3.11791 4.4468 3.12777 4.43692 3.13764C4.348 3.22644 4.26896 3.31524 4.18004 3.40404L4.17015 3.41391C3.3007 4.34139 2.61898 5.41687 2.13485 6.56142C2.13485 6.57128 2.12497 6.58115 2.12497 6.59102C2.06569 6.71929 2.01629 6.85742 1.96689 6.98569C1.96689 6.99556 1.95701 7.00542 1.95701 7.01529C1.92737 7.10409 1.89773 7.18302 1.86809 7.27182C1.84833 7.32116 1.83845 7.36063 1.81869 7.40996C1.79893 7.45929 1.78904 7.49876 1.77916 7.5481C1.71 7.7553 1.65072 7.9625 1.60132 8.17957C1.60132 8.1993 1.59144 8.20917 1.59144 8.2289C1.57168 8.30784 1.55192 8.3769 1.54204 8.45584C1.54204 8.4657 1.53216 8.48544 1.53216 8.49531C1.48276 8.71238 1.44324 8.93931 1.4136 9.15638C1.40372 9.19585 1.40372 9.24518 1.39384 9.28465C1.38396 9.33398 1.38396 9.38332 1.37408 9.43265C1.3642 9.51159 1.35432 9.59052 1.34444 9.66946C1.34444 9.68919 1.34444 9.69906 1.33456 9.71879C1.30492 10.0543 1.28516 10.3996 1.28516 10.7351C1.28516 12.4124 1.68037 14.1095 2.50042 15.6882C2.5103 15.7079 2.52018 15.7277 2.53006 15.7474C2.56958 15.8165 2.59921 15.8855 2.63873 15.9447C2.6585 15.9842 2.67826 16.0138 2.69802 16.0533C2.7079 16.0631 2.70789 16.073 2.71777 16.0829L4.9902 20.0099L8.03329 25.2787C7.21949 23.6316 6.67138 22.0197 6.67138 20.0099C6.67138 18 7.2302 16.1008 8.23138 14.4453C9.23256 12.7898 10.9938 11.3305 12.4898 10.5263C13.9857 9.72213 15.6759 9.40233 16.3227 9.34842C16.9695 9.29451 17.1521 9.30526 17.5676 9.30526Z" fill="#FEC90D"/>
<path d="M22.7544 29.2946C21.0834 30.2523 18.8803 30.7569 16.9179 30.6843C14.9554 30.6117 13.0728 29.9707 11.6613 29.0633C10.2498 28.1558 9.48678 27.3159 8.53694 26.0484C7.74521 24.8336 6.16493 22.0276 4.99651 20.0198L2.74718 23.9468C1.79869 25.5946 1.33433 27.3805 1.30469 29.1565V29.3045C1.30469 29.3538 1.30469 29.4032 1.30469 29.4525C1.30469 29.5314 1.30469 29.6104 1.30469 29.6893C1.31457 29.8373 1.31457 29.9754 1.32445 30.1136C1.32445 30.1333 1.32445 30.153 1.32445 30.1728C1.32445 30.232 1.33433 30.2912 1.34421 30.3504C1.35409 30.4096 1.35409 30.4589 1.36397 30.5181C1.36397 30.5378 1.36397 30.5576 1.37385 30.5872C1.54181 31.9784 1.97653 33.2907 2.61874 34.4648C2.61874 34.4648 2.61875 34.4747 2.62863 34.4747C2.66815 34.5438 2.69779 34.603 2.73731 34.672C2.76695 34.7214 2.79659 34.7707 2.82623 34.82C2.83611 34.8398 2.84599 34.8595 2.85587 34.8792C3.50796 35.9547 4.36753 36.9315 5.40494 37.7406C5.46422 37.7899 5.5235 37.8294 5.58278 37.8787C5.61242 37.8985 5.63218 37.9182 5.66182 37.9379C5.70134 37.9675 5.73099 37.9873 5.77051 38.0169C5.82979 38.0563 5.88907 38.1057 5.94835 38.1451L5.95822 38.155C6.34355 38.4214 6.74864 38.6582 7.17349 38.8654C7.19325 38.8753 7.213 38.8851 7.23276 38.895C7.3118 38.9345 7.39085 38.9739 7.46989 39.0134C7.48965 39.0233 7.49953 39.0331 7.51929 39.0331C7.66749 39.1022 7.81569 39.1713 7.97377 39.2305C8.00341 39.2403 8.02317 39.2502 8.05281 39.2601C8.11209 39.2798 8.17138 39.3094 8.24054 39.3291C8.29982 39.3489 8.3591 39.3686 8.4085 39.3883C8.4579 39.4081 8.5073 39.4278 8.5567 39.4377C8.66538 39.4771 8.78394 39.5166 8.89262 39.5462H8.90251C8.98155 39.5659 9.05071 39.5956 9.12975 39.6153C9.15939 39.6252 9.18903 39.635 9.22855 39.6449C9.27795 39.6547 9.32735 39.6745 9.37675 39.6843C9.43603 39.7041 9.49531 39.714 9.55459 39.7238C9.57435 39.7337 9.59411 39.7337 9.61387 39.7337C9.73243 39.7633 9.851 39.783 9.97944 39.8126C10.0288 39.8225 10.0782 39.8323 10.1276 39.8422C10.1968 39.8521 10.2758 39.8718 10.345 39.8817C10.4438 39.9014 10.5525 39.9113 10.6513 39.9212C10.7007 39.931 10.76 39.931 10.8094 39.9409C10.8884 39.9508 10.9674 39.9606 11.0465 39.9606C11.086 39.9606 11.1255 39.9705 11.1651 39.9705C11.4219 39.9902 11.6887 40.0001 11.9456 40.0001C11.9752 40.0001 11.995 40.0001 12.0246 40.0001C12.0345 40.0001 12.0444 40.0001 12.0641 40.0001C12.2123 40.0001 12.3606 40.0001 12.5088 39.9902C12.5285 39.9902 12.5582 39.9902 12.5779 39.9902C12.7459 39.9804 12.9138 39.9705 13.0818 39.9508C13.1213 39.9508 13.151 39.9409 13.1905 39.9409C13.2498 39.931 13.309 39.931 13.3683 39.9212C13.4276 39.9113 13.4869 39.9113 13.5462 39.9014C13.556 39.9014 13.556 39.9014 13.5659 39.9014C14.7614 39.7337 15.8878 39.3686 16.9153 38.8358C16.9449 38.8161 16.9844 38.7963 17.0141 38.7865C17.0536 38.7667 17.103 38.7371 17.1425 38.7174C17.2216 38.6779 17.3006 38.6286 17.3797 38.5891C17.3797 38.5891 17.3895 38.5891 17.3895 38.5793C18.6641 37.8491 19.8003 36.8427 20.6994 35.5995C20.6994 35.5995 20.6994 35.5995 20.6994 35.5896C20.7587 35.5107 20.8179 35.4219 20.8772 35.3331C20.9167 35.2838 20.9464 35.2246 20.9859 35.1752C21.0057 35.1555 21.0155 35.1259 21.0353 35.1062C21.0847 35.0371 21.1242 34.968 21.1736 34.899C21.1736 34.899 21.1736 34.8891 21.1835 34.8891C21.2329 34.8102 21.2724 34.7312 21.3218 34.6523L21.3613 34.5832L23.5844 30.7352L26.6373 25.4466C25.7382 26.9957 24.4242 28.3277 22.7544 29.2946Z" fill="#17DE3F"/>
<path d="M28.1276 20.0098C28.1276 25.9298 23.3259 30.7251 17.3978 30.7251C11.4697 30.7251 6.66797 25.9298 6.66797 20.0098C6.66797 14.0897 11.4697 9.29443 17.3978 9.29443C23.316 9.29443 28.1276 14.0897 28.1276 20.0098Z" fill="white"/>
<path d="M17.397 27.1239C13.4647 27.1239 10.2734 23.9369 10.2734 20.01C10.2734 16.083 13.4647 12.896 17.397 12.896C21.3293 12.896 24.5206 16.083 24.5206 20.01C24.5206 23.9369 21.3194 27.1239 17.397 27.1239Z" fill="#01375F"/>
<path d="M21.0847 19.7533C19.1877 19.7533 17.6562 18.2141 17.6562 16.3295C17.6562 14.445 19.1976 12.9058 21.0847 12.9058C22.9816 12.9058 24.5131 14.445 24.5131 16.3295C24.5131 18.2141 22.9816 19.7533 21.0847 19.7533Z" fill="white"/>
</svg>
